<?xml version="1.0" encoding="UTF-8"?>
<svg id="Layer_1" data-name="Layer 1" xmlns="http://www.w3.org/2000/svg" viewBox="0 0 100.53 100.53">
  <defs>
    <style>
      .cls-1 {
        fill: #fff4de;
      }

      .cls-2 {
        fill: #0f8f99;
      }
    </style>
  </defs>
  <rect class="cls-2" x="-.91" y="-.91" width="102.35" height="102.35"/>
  <g>
    <circle class="cls-1" cx="33.58" cy="23.2" r="6.62"/>
    <circle class="cls-1" cx="66.98" cy="23.2" r="6.62"/>
    <path class="cls-1" d="M67.88,33.92l-16.35,14.73c-.74.67-1.86.67-2.6,0l-16.28-14.71c-2.21-1.98-5.72-.42-5.72,2.55v42.16c0,1.42,1.15,2.58,2.58,2.58h5.82c1.42,0,2.58-1.15,2.58-2.58v-24.14c0-1.05,1.24-1.6,2.01-.89,1.55,1.43,5.6,5.02,7.84,6.91,1.45,1.22,3.57,1.22,5.01-.02,2.2-1.88,6.19-5.45,7.72-6.88.77-.71,2.02-.16,2.02.89v24.17c0,1.4,1.13,2.53,2.53,2.53h6.07c1.38,0,2.49-1.12,2.49-2.49v-42.25c0-2.97-3.51-4.53-5.72-2.56Z"/>
  </g>
</svg>